# xmcd
#
# Track frame offsets:
# 150
# 12337
# 27611
# 42074
# 56017
# 67468
# 80382
# 92890
# 107152
# 121511
# 135181
# 145720
# 160415
#
# Disc length: 2292 seconds
#
#
# Revision: 0
# Processed by: cddbd v1.5.1PL2 Copyright (c) Steve Scherf et al.
# Submitted via: FreeRIP 2.944 
#
DISCID=ac08f20d
DTITLE=Chico Rey and Paraná - Recordações
DYEAR=1997
DGENRE=Sertanejo
TTITLE0=Amor com amor se paga
TTITLE1=Minhas Férias sem você
TTITLE2=De carona com a saudade
TTITLE3=A lua é testemunha
TTITLE4=Fatalidade
TTITLE5=Minha serenata
TTITLE6=Pranto escondido
TTITLE7=Surpresa da vida
TTITLE8=No colo da noite
TTITLE9=Caprichos do destino
TTITLE10=Nosso juramento
TTITLE11=Compreensão
TTITLE12=Pedaço de minha vida
EXTD=
EXTT0=
EXTT1=
EXTT2=
EXTT3=
EXTT4=
EXTT5=
EXTT6=
EXTT7=
EXTT8=
EXTT9=
EXTT10=
EXTT11=
EXTT12=
PLAYORDER=
